<?xml version="1.0" encoding="utf-8"?>
<svg version="1.1" id="brilliance" xmlns="http://www.w3.org/2000/svg" xmlns:xlink="http://www.w3.org/1999/xlink" x="0px" y="0px"
	 viewBox="0 0 385.8 54" height="54" style="enable-background:new 0 0 385.8 54;" xml:space="preserve">
<style type="text/css">
	.st0{fill:#FFFFFF;}
	.st1{fill-rule:evenodd;clip-rule:evenodd;fill:#FFFFFF;}
</style>
<path id="b" class="st0" d="M35.5,30.9c2,2.5,3,5.3,3,8.4c0,2.7-0.7,5.1-2.1,7.3c-1.4,2.2-3.4,3.9-6,5.1c-2.6,1.2-5.7,1.9-9.2,1.9H0
	V0.7h20.1c3.6,0,6.7,0.6,9.3,1.8c2.6,1.2,4.5,2.9,5.9,4.9c1.3,2.1,2,4.3,2,6.9c0,3-0.8,5.6-2.4,7.6c-1.6,2-3.8,3.5-6.5,4.5
	C31.1,26.9,33.5,28.4,35.5,30.9z M8.7,22.9h10.7c2.8,0,5.1-0.6,6.6-1.9s2.4-3.2,2.4-5.6c0-2.4-0.8-4.2-2.4-5.6c-1.6-1.3-3.8-2-6.6-2
	H8.7V22.9z M27.3,44.3c1.7-1.4,2.5-3.4,2.5-5.9c0-2.6-0.9-4.6-2.7-6.2c-1.8-1.5-4.1-2.3-7.1-2.3H8.7v16.5h11.7
	C23.3,46.4,25.6,45.7,27.3,44.3z"/>
<path id="r" class="st0" d="M75.3,53.5L63.2,32.4h-6.6v21.1h-8.7V0.7h18.2c4.1,0,7.5,0.7,10.3,2.1c2.8,1.4,4.9,3.3,6.3,5.7
	c1.4,2.4,2.1,5,2.1,8c0,3.4-1,6.6-3,9.4c-2,2.8-5.1,4.7-9.2,5.7l13.1,21.9H75.3z M56.5,25.5h9.6c3.2,0,5.7-0.8,7.3-2.4
	c1.6-1.6,2.5-3.8,2.5-6.5c0-2.7-0.8-4.9-2.4-6.4c-1.6-1.5-4.1-2.3-7.4-2.3h-9.6V25.5z"/>
<path id="i" class="st0" d="M104.6,0.7v52.8h-8.7V0.7H104.6z"/>
<path id="l" class="st0" d="M124.6,46.5h17.9v7H116V0.7h8.7V46.5z"/>
<path id="l_00000149361606797952146890000003384140931370969231_" class="st0" d="M158.4,46.5h17.9v7h-26.5V0.7h8.7V46.5z"/>
<path id="i_00000071544378897104855060000005011151502993596329_" class="st0" d="M192.1,0.7v52.8h-8.7V0.7H192.1z"/>
<path id="icon_00000056412815986153351170000000896576346868783785_" class="st1" d="M218.3,4.2l-5.2,3.7l-2.5,3.9
	c-1.3,2.2-2.5,3.9-2.5,3.9s-1.1-0.4-2.4-0.9c-2.9-1.2-3.6-1.3-5-0.7c-2.4,0.9-3.8,3.1-3.8,5.7c0,2.4,1.1,3.9,3.6,4.8
	c0.8,0.3,1.4,0.6,1.4,0.7c0,0.1-1.3,2.2-3,4.7c-1.7,2.8-2.9,4.7-2.7,4.8c0.1,0.1,3.4,1.9,7.3,4.1l7.1,3.8v2.8c0,3.6,0.2,4.6,1.2,5.6
	c2.4,2.4,6.4,2.3,8.6-0.2c0.4-0.4,0.7-0.9,0.7-1s0.1-0.4,0.2-0.6c0.3-0.4,0.4-0.4,6.8,3.2l1.6,0.9l3.5-2.4c1.9-1.3,4.3-3,5.4-3.8
	s2.1-1.4,2.1-1.4c0-0.1-0.6-1.7-1.3-3.8c-2.3-6.2-2.2-5.6-1.7-6.4c1.4-2.3,1.7-4.2,1-6.1c-0.5-1.2-1.3-1.8-3.5-3s-1.2,0.7-7.2-15.1
	c-2.1-5.4-3.8-10.2-3.9-10.5c-0.1-0.3-0.3-0.5-0.4-0.5C223.7,0.6,221.2,2.3,218.3,4.2 M201.2,14.3c-1,0.2-2.8,1.9-3.3,3.3
	c-0.6,1.6-0.4,3.6,0.4,4.8c0.5,0.8,3.1,2.3,3.9,2.3c0.2,0,0.4-0.3,0.6-0.6c0.2-0.3,1.3-2.2,2.7-4.2c1.3-1.9,2.3-3.6,2.3-3.7
	c-0.1,0-1-0.5-2.2-0.9C203.4,14.4,202.1,14.1,201.2,14.3 M211.9,16c-0.6,1-1.9,3.1-3,4.5c-0.9,1.4-1.7,2.8-1.7,3
	c0,0.2,0.3,0.4,0.6,0.5c0.5,0.2,2.4,1.1,9.8,5.2l1.7,0.9l-0.6-1.4c-0.3-0.8-1.1-3-1.8-4.8c-0.7-1.8-1.7-4.6-2.4-6.2
	c-0.6-1.5-1.1-3-1.1-3.1C213.5,13.8,212.9,14.4,211.9,16 M205.7,25.5c-0.4,0.6-1.6,2.7-2.8,4.5c-1.2,1.9-2.1,3.5-1.8,3.6
	c0.3,0.3,10.9,5.9,11,5.8c0.1-0.1-0.2-0.9-1.8-5.5c-2.2-6.1-3.5-9.5-3.7-9.5C206.5,24.3,206.1,24.8,205.7,25.5 M227.2,25
	c-2.7,1.2-4,5.1-2.6,7.4c0.4,0.6,1.3,1.3,2.9,2.2c2.6,1.3,2.8,1.4,2.4,0.6c-0.4-0.8-0.4-3.2,0.1-4.4c0.6-1.4,2.1-2.9,3.3-3.4
	l1.1-0.4l-2.3-1.1C229.6,24.5,228.5,24.4,227.2,25 M233.2,27.9c-2.6,1.1-3.8,4.4-2.8,7c1.7,4.2,8.1,1.8,8.2-3.1
	c0-2.6-0.9-3.9-3.1-4.2C234.5,27.5,233.9,27.6,233.2,27.9 M218.9,32.2c-2.9,4.2-5.3,8.1-5.1,8.3c0.1,0.1,2.1,1.1,4.5,2.5
	c2.5,1.3,5,2.8,5.8,3.2l1.4,0.8l-0.4-1c-0.2-0.6-1.4-3.9-2.8-7.4c-1.3-3.5-2.5-6.6-2.6-6.9C219.7,31.2,219.6,31.3,218.9,32.2
	 M211.3,45.9c-0.1,3.1,0.2,4.1,1.4,5.1c2.4,1.9,6.7,1.4,7.9-0.9c0.7-1.4,0.7-1.5-3.5-3.8c-0.8-0.4-2.5-1.3-3.6-1.9l-2.2-1.1
	L211.3,45.9"/>
<path id="n" class="st0" d="M286.4,53.5h-8.7l-26.1-39.4v39.4H243V0.6h8.7L277.8,40V0.6h8.7V53.5z"/>
<path id="c" class="st0" d="M298.6,13.1c2.4-4.1,5.7-7.3,9.8-9.6C312.5,1.2,317,0,321.9,0c5.6,0,10.6,1.4,15,4.1
	c4.4,2.8,7.6,6.7,9.5,11.7h-10.4c-1.4-2.8-3.3-4.9-5.7-6.2c-2.4-1.4-5.2-2.1-8.4-2.1c-3.5,0-6.6,0.8-9.3,2.4
	c-2.7,1.6-4.9,3.8-6.4,6.8c-1.5,2.9-2.3,6.4-2.3,10.3c0,3.9,0.8,7.3,2.3,10.3c1.5,2.9,3.7,5.2,6.4,6.8c2.7,1.6,5.9,2.4,9.3,2.4
	c3.2,0,6-0.7,8.4-2.1c2.4-1.4,4.3-3.4,5.7-6.2h10.4c-2,5.1-5.2,9-9.5,11.7c-4.4,2.7-9.4,4.1-15,4.1c-5,0-9.5-1.2-13.6-3.5
	c-4.1-2.3-7.4-5.5-9.8-9.6c-2.4-4.1-3.6-8.7-3.6-13.9C294.9,21.8,296.2,17.2,298.6,13.1z"/>
<path id="e" class="st0" d="M365.2,7.7v15.5h18.2v7.1h-18.2v16.2h20.5v7.1h-29.2V0.6h29.2v7.1H365.2z"/>
</svg>
