<?xml version="1.0" encoding="utf-8"?>
<!-- Generator: Adobe Illustrator 26.5.0, SVG Export Plug-In . SVG Version: 6.00 Build 0)  -->
<svg version="1.1" id="BRILLIANCE" xmlns="http://www.w3.org/2000/svg" xmlns:xlink="http://www.w3.org/1999/xlink" x="0px" y="0px"
	 viewBox="0 0 437.9 53.9" style="enable-background:new 0 0 437.9 53.9;" xml:space="preserve">
<style type="text/css">
	.st0{fill:#EDEDED;}
	.st1{fill:#EBD3E1;}
	.st2{fill:#EAB8D6;}
	.st3{fill:#E89ECA;}
	.st4{fill:#E784BF;}
	.st5{fill:#E569B3;}
	.st6{fill:#E2359C;}
	.st7{fill:#E11A91;}
	.st8{fill:#DF0085;}
	.st9{fill-rule:evenodd;clip-rule:evenodd;fill:#E44CA4;}
</style>
<path id="B" class="st0" d="M0,0.8h16c7.3,0,12.6,1,15.9,3.1c3.3,2.1,5,5.4,5,9.9c0,3.1-0.7,5.6-2.2,7.6c-1.4,2-3.3,3.2-5.7,3.6v0.4
	c3.3,0.7,5.6,2.1,7,4.1c1.5,2,2.2,4.6,2.2,7.9c0,4.7-1.7,8.3-5.1,11c-3.4,2.6-8,3.9-13.8,3.9H0V0.8z M10.9,21.1h6.3
	c3,0,5.1-0.5,6.4-1.4c1.3-0.9,2-2.4,2-4.5c0-2-0.7-3.4-2.2-4.2c-1.4-0.9-3.7-1.3-6.8-1.3h-5.7V21.1z M10.9,29.8v13.4H18
	c3,0,5.2-0.6,6.6-1.7s2.1-2.9,2.1-5.3c0-4.3-3-6.4-9.1-6.4H10.9z"/>
<path id="R" class="st1" d="M62.3,23.6h3.5c3.4,0,6-0.6,7.6-1.7s2.5-3,2.5-5.4c0-2.4-0.8-4.2-2.5-5.2c-1.7-1-4.3-1.5-7.8-1.5h-3.3
	V23.6z M62.3,32.5v19.7H51.4V0.8h15c7,0,12.2,1.3,15.5,3.8c3.4,2.5,5,6.4,5,11.6c0,3-0.8,5.7-2.5,8.1c-1.7,2.3-4,4.2-7.1,5.5
	l15.1,22.4H80.3L68.1,32.5H62.3z"/>
<path id="I" class="st2" d="M121.1,52.2H97.8V46l6.3-2.9V9.9L97.8,7V0.8h23.4V7l-6.3,2.9v33.3l6.3,2.9V52.2z"/>
<path id="L" class="st3" d="M132.9,52.2V0.8h10.9v42.4h20.8v9H132.9z"/>
<path id="L_00000160881765937115620760000009439901597333403571_" class="st4" d="M176.5,52.2V0.8h10.9v42.4h20.8v9H176.5z"/>
<path id="I_00000104675479515023673460000008255466108366760119_" class="st5" d="M239.4,52.2H216V46l6.3-2.9V9.9L216,7V0.8h23.4V7
	l-6.3,2.9v33.3l6.3,2.9V52.2z"/>
<path id="N" class="st6" d="M343.5,52.2h-13.9l-22.4-38.9H307c0.4,6.9,0.7,11.8,0.7,14.7v24.2h-9.7V0.8h13.7L334,39.3h0.2
	c-0.4-6.7-0.5-11.4-0.5-14.2V0.8h9.8V52.2z"/>
<path id="C" class="st7" d="M381.3,9.1c-4.1,0-7.3,1.5-9.5,4.6c-2.2,3.1-3.4,7.4-3.4,12.9c0,11.5,4.3,17.2,12.9,17.2
	c3.6,0,8-0.9,13.1-2.7v9.1c-4.2,1.8-8.9,2.6-14.1,2.6c-7.5,0-13.2-2.3-17.2-6.8c-4-4.5-5.9-11.1-5.9-19.5c0-5.3,1-10,2.9-14
	c1.9-4,4.7-7.1,8.4-9.2c3.7-2.2,7.9-3.2,12.8-3.2c5,0,10,1.2,15,3.6l-3.5,8.9c-1.9-0.9-3.9-1.7-5.8-2.4S383.1,9.1,381.3,9.1z"/>
<path id="E" class="st8" d="M437.9,52.2h-29.6V0.8h29.6v8.9h-18.7V21h17.4v8.9h-17.4v13.3h18.7V52.2z"/>
<path id="icon" class="st9" d="M265.9,4.3l-5.1,3.6l-2.4,3.8c-1.3,2.1-2.4,3.8-2.4,3.8c0,0-1.1-0.4-2.3-0.9
	c-2.8-1.2-3.5-1.3-4.9-0.7c-2.3,0.9-3.7,3-3.7,5.6c0,2.3,1.1,3.8,3.5,4.7c0.8,0.3,1.4,0.6,1.4,0.7s-1.3,2.1-2.9,4.6
	c-1.7,2.7-2.8,4.6-2.6,4.7c0.1,0.1,3.3,1.9,7.1,4l6.9,3.7l0,2.7c0,3.5,0.2,4.5,1.2,5.5c2.3,2.3,6.2,2.2,8.4-0.2
	c0.4-0.4,0.7-0.9,0.7-1c0-0.1,0.1-0.4,0.2-0.6c0.3-0.4,0.4-0.4,6.6,3.1l1.6,0.9l3.4-2.3c1.9-1.3,4.2-2.9,5.3-3.7s2-1.4,2-1.4
	c0-0.1-0.6-1.7-1.3-3.7c-2.2-6-2.1-5.5-1.7-6.2c1.4-2.2,1.7-4.1,1-5.9c-0.5-1.2-1.3-1.8-3.4-2.9c-2.1-1.1-1.2,0.7-7-14.7
	c-2-5.3-3.7-9.9-3.8-10.2s-0.3-0.5-0.4-0.5C271.1,0.8,268.7,2.4,265.9,4.3 M249.2,14.1c-1,0.2-2.7,1.9-3.2,3.2
	c-0.6,1.6-0.4,3.5,0.4,4.7c0.5,0.8,3,2.2,3.8,2.2c0.2,0,0.4-0.3,0.6-0.6c0.2-0.3,1.3-2.1,2.6-4.1c1.3-1.9,2.2-3.5,2.2-3.6
	c-0.1,0-1-0.5-2.1-0.9C251.3,14.2,250.1,13.9,249.2,14.1 M259.6,15.8c-0.6,1-1.9,3-2.9,4.4c-0.9,1.4-1.7,2.7-1.7,2.9
	c0,0.2,0.3,0.4,0.6,0.5c0.5,0.2,2.3,1.1,9.6,5.1l1.7,0.9l-0.6-1.4c-0.3-0.8-1.1-2.9-1.8-4.7c-0.7-1.8-1.7-4.5-2.3-6
	c-0.6-1.5-1.1-2.9-1.1-3C261.2,13.7,260.6,14.2,259.6,15.8 M253.6,25.1c-0.4,0.6-1.6,2.6-2.7,4.4c-1.2,1.9-2,3.4-1.8,3.5
	c0.3,0.3,10.6,5.8,10.7,5.7c0.1-0.1-0.2-0.9-1.8-5.4c-2.1-5.9-3.4-9.3-3.6-9.3C254.4,23.9,254,24.4,253.6,25.1 M274.5,24.6
	c-2.6,1.2-3.9,5-2.5,7.2c0.4,0.6,1.3,1.3,2.8,2.1c2.5,1.3,2.7,1.4,2.3,0.6c-0.4-0.8-0.4-3.1,0.1-4.3c0.6-1.4,2-2.8,3.2-3.3l1.1-0.4
	l-2.2-1.1C276.9,24.1,275.8,24,274.5,24.6 M280.4,27.4c-2.5,1.1-3.7,4.3-2.7,6.8c1.7,4.1,7.9,1.8,8-3c0-2.5-0.9-3.8-3-4.1
	C281.7,27,281.1,27.1,280.4,27.4 M266.5,31.6c-2.8,4.1-5.2,7.9-5,8.1c0.1,0.1,2,1.1,4.4,2.4c2.4,1.3,4.9,2.7,5.7,3.1L273,46l-0.4-1
	c-0.2-0.6-1.4-3.8-2.7-7.2c-1.3-3.4-2.4-6.4-2.5-6.7C267.2,30.6,267.1,30.7,266.5,31.6 M259,44.9c-0.1,3,0.2,4,1.4,5
	c2.3,1.9,6.5,1.4,7.7-0.9c0.7-1.4,0.7-1.5-3.4-3.7c-0.8-0.4-2.4-1.3-3.5-1.9l-2.1-1.1L259,44.9"/>
</svg>
