<?xml version="1.0" encoding="utf-8"?>
<!-- Generator: Adobe Illustrator 26.5.0, SVG Export Plug-In . SVG Version: 6.00 Build 0)  -->
<svg version="1.1" id="icon" xmlns="http://www.w3.org/2000/svg" xmlns:xlink="http://www.w3.org/1999/xlink" x="0px" y="0px"
	 viewBox="0 0 256 256" style="enable-background:new 0 0 256 256;" xml:space="preserve">
<style type="text/css">
	.st0{fill-rule:evenodd;clip-rule:evenodd;fill:#DF0085;}
</style>
<path id="icon_00000056412815986153351170000000896576346868783785_" class="st0" d="M127.6,18.3l-25.1,17.9L90.4,55.1
	c-6.3,10.6-12.1,18.8-12.1,18.8s-5.3-1.9-11.6-4.3c-14-5.8-17.4-6.3-24.2-3.4c-11.6,4.3-18.4,15-18.4,27.5
	c0,11.6,5.3,18.8,17.4,23.2c3.9,1.4,6.8,2.9,6.8,3.4c0,0.5-6.3,10.6-14.5,22.7c-8.2,13.5-14,22.7-13,23.2
	c0.5,0.5,16.4,9.2,35.3,19.8l34.3,18.4v13.5c0,17.4,1,22.2,5.8,27.1c11.6,11.6,30.9,11.1,41.5-1c1.9-1.9,3.4-4.3,3.4-4.8
	c0-0.5,0.5-1.9,1-2.9c1.4-1.9,1.9-1.9,32.8,15.5l7.7,4.3l16.9-11.6c9.2-6.3,20.8-14.5,26.1-18.4s10.1-6.8,10.1-6.8
	c0-0.5-2.9-8.2-6.3-18.4c-11.1-29.9-10.6-27.1-8.2-30.9c6.8-11.1,8.2-20.3,4.8-29.5c-2.4-5.8-6.3-8.7-16.9-14.5
	c-10.6-5.8-5.8,3.4-34.8-72.9C164.3,27,156.1,3.9,155.7,2.4C155.2,1,154.2,0,153.7,0C153.7,1,141.6,9.2,127.6,18.3 M45,67.1
	c-4.8,1-13.5,9.2-15.9,15.9c-2.9,7.7-1.9,17.4,1.9,23.2c2.4,3.9,15,11.1,18.8,11.1c1,0,1.9-1.4,2.9-2.9c1-1.4,6.3-10.6,13-20.3
	c6.3-9.2,11.1-17.4,11.1-17.9c-0.5,0-4.8-2.4-10.6-4.3C55.7,67.6,49.4,66.2,45,67.1 M96.7,75.3c-2.9,4.8-9.2,15-14.5,21.7
	c-4.3,6.8-8.2,13.5-8.2,14.5s1.4,1.9,2.9,2.4c2.4,1,11.6,5.3,47.3,25.1l8.2,4.3l-2.9-6.8c-1.4-3.9-5.3-14.5-8.7-23.2
	c-3.4-8.7-8.2-22.2-11.6-29.9c-2.9-7.2-5.3-14.5-5.3-15C104.5,64.7,101.6,67.6,96.7,75.3 M66.8,121.2c-1.9,2.9-7.7,13-13.5,21.7
	c-5.8,9.2-10.1,16.9-8.7,17.4c1.4,1.4,52.7,28.5,53.1,28c0.5-0.5-1-4.3-8.7-26.6c-10.6-29.5-16.9-45.9-17.9-45.9
	C70.6,115.4,68.7,117.9,66.8,121.2 M170.6,118.8c-13,5.8-19.3,24.6-12.6,35.7c1.9,2.9,6.3,6.3,14,10.6c12.6,6.3,13.5,6.8,11.6,2.9
	c-1.9-3.9-1.9-15.5,0.5-21.3c2.9-6.8,10.1-14,15.9-16.4l5.3-1.9l-11.1-5.3C182.2,116.4,176.9,115.9,170.6,118.8 M199.6,132.8
	c-12.6,5.3-18.4,21.3-13.5,33.8c8.2,20.3,39.1,8.7,39.6-15c0-12.6-4.3-18.8-15-20.3C205.9,130.9,203,131.4,199.6,132.8 M130.5,153.6
	c-14,20.3-25.6,39.1-24.6,40.1c0.5,0.5,10.1,5.3,21.7,12.1c12.1,6.3,24.2,13.5,28,15.5l6.8,3.9l-1.9-4.8c-1-2.9-6.8-18.8-13.5-35.7
	c-6.3-16.9-12.1-31.9-12.6-33.3C134.4,148.8,133.9,149.2,130.5,153.6 M93.8,219.8c-0.5,15,1,19.8,6.8,24.6
	c11.6,9.2,32.4,6.8,38.2-4.3c3.4-6.8,3.4-7.2-16.9-18.4c-3.9-1.9-12.1-6.3-17.4-9.2l-10.6-5.3L93.8,219.8"/>
</svg>
